<svg width="300" height="72" viewBox="0 0 300 72" fill="none" xmlns="http://www.w3.org/2000/svg">
<path d="M63 35.3941H76.8912C83.8369 35.3941 88.3563 32.1116 88.3563 26.3077C88.3563 22.0738 86.0252 19.4097 82.6476 18.0301C85.8825 16.7932 87.9757 14.1291 87.9757 10.0854C87.9757 4.51941 83.932 0.666019 76.7485 0.666019H63V35.3941ZM76.5582 5.85145C80.2213 5.85145 81.9815 8.32524 81.9815 10.8942C81.9815 13.5107 80.2213 15.7942 76.5582 15.7942H68.9942V5.85145H76.5582ZM76.9864 20.3611C80.0786 20.3611 82.4097 22.2165 82.4097 25.3087C82.4097 28.3534 80.2689 30.2087 76.9864 30.2087H68.9942V20.3611H76.9864Z" fill="#434343"/>
<path d="M91.7094 23.5961C91.7094 30.8272 96.5618 35.965 103.936 35.965C111.309 35.965 116.162 30.8272 116.162 23.5961C116.162 16.365 111.309 11.2272 103.936 11.2272C96.5618 11.2272 91.7094 16.365 91.7094 23.5961ZM97.5609 23.5961C97.5609 19.3621 100.082 16.4126 103.936 16.4126C107.789 16.4126 110.31 19.3621 110.31 23.5961C110.31 27.7825 107.789 30.7796 103.936 30.7796C100.082 30.7796 97.5609 27.7825 97.5609 23.5961Z" fill="#434343"/>
<path d="M156.478 35.3941H163.376L157.762 28.9242C159.475 26.165 160.378 22.6922 160.283 18.7437H154.622C154.622 20.8369 154.384 22.7398 153.813 24.3573L146.82 16.3175C150.959 13.3679 152.862 10.5612 152.862 7.37378C152.862 2.94951 149.389 0.0475715 144.251 0.0475715C139.304 0.0475715 135.355 2.75922 135.355 7.70679C135.403 9.89514 136.212 11.798 139.399 15.5087C134.499 17.9825 131.026 20.932 131.026 26.165C131.026 32.2068 136.069 36.0126 143.68 36.0126C147.867 36.0126 151.482 34.8708 154.242 32.7776L156.478 35.3941ZM140.921 8.0398C140.921 6.42232 142.015 4.94757 144.251 4.94757C146.392 4.94757 147.391 6.32718 147.391 7.99222C147.391 9.6097 146.345 11.465 144.013 13.0825C141.92 10.7514 140.921 9.46698 140.921 8.0398ZM137.115 25.5941C137.115 22.5019 139.209 20.7417 142.396 18.9815L150.864 28.8767C149.246 30.2563 147.058 31.0174 144.346 31.0174C139.827 31.0174 137.115 29.2573 137.115 25.5941Z" fill="#434343"/>
<path d="M193.338 35.965C201.473 35.965 207.895 31.2077 209.275 23.7864H202.948C201.663 27.4971 197.952 29.9708 193.481 29.9708C187.249 29.9708 183.015 25.499 183.015 17.9825C183.015 10.7514 186.963 5.9466 193.481 5.9466C197.619 5.9466 201.092 8.18252 202.282 12.2738H208.751C207.562 4.85242 201.52 0 193.623 0C183.49 0 176.64 7.23106 176.64 18.0301C176.64 29.2573 183.49 35.965 193.338 35.965Z" fill="#434343"/>
<path d="M212.5 23.5961C212.5 30.8272 217.352 35.965 224.726 35.965C232.1 35.965 236.952 30.8272 236.952 23.5961C236.952 16.365 232.1 11.2272 224.726 11.2272C217.352 11.2272 212.5 16.365 212.5 23.5961ZM218.351 23.5961C218.351 19.3621 220.872 16.4126 224.726 16.4126C228.579 16.4126 231.101 19.3621 231.101 23.5961C231.101 27.7825 228.579 30.7796 224.726 30.7796C220.872 30.7796 218.351 27.7825 218.351 23.5961Z" fill="#434343"/>
<path d="M110.79 71.8536L111.705 69.1594H115.832L116.731 71.8536H119.701L115.159 59.0736H112.43L107.871 71.8536H110.79ZM113.449 64.082C113.605 63.6502 113.743 63.1494 113.777 62.8385C113.829 63.1494 113.967 63.6502 114.123 64.082L115.038 66.8107H112.517L113.449 64.082Z" fill="#434343"/>
<path d="M121.129 61.7332H125.136V71.8536H127.934V61.7332H131.923V59.0736H121.129V61.7332Z" fill="#434343"/>
<path d="M143.772 71.8536V69.2285H138.453V66.6207H143.168V64.1511H138.453V61.716H143.772V59.0736H135.655V71.8536H143.772Z" fill="#434343"/>
<path d="M150.966 59.0736H148.133V71.8536H155.974V69.3494H150.966V59.0736Z" fill="#434343"/>
<path d="M162.6 59.0736H159.802V71.8536H162.6V59.0736Z" fill="#434343"/>
<path d="M175.271 71.8536V69.2285H169.951V66.6207H174.666V64.1511H169.951V61.716H175.271V59.0736H167.154V71.8536H175.271Z" fill="#434343"/>
<path d="M182.43 71.8536V67.3461H184.537L186.419 71.8536H189.562L187.352 66.8798C188.699 66.2408 189.442 64.9628 189.442 63.2185C189.442 60.5416 187.853 59.0909 184.571 59.0736H179.632V71.8536H182.43ZM182.43 61.5433H184.571C186.005 61.5433 186.488 62.3204 186.488 63.2185C186.488 64.1338 185.988 64.9282 184.554 64.9282H182.43V61.5433Z" fill="#434343"/>
</svg>
